<svg xmlns="http://www.w3.org/2000/svg" width="1024" height="1024"><path fill="#aa70c2" d="M468.777 668.103c-8.938-6.811-23.838-17.48-32.926-23.154-9.089-5.672-28.59-16.131-42.408-23.056-13.818-6.924-33.97-15.7-44.227-19.78-10.256-4.079-29.692-10.703-44.491-15.463-14.8-4.759-38.614-11.266-53.293-14.46-14.679-3.195-36.358-7.334-47.804-9.013-11.446-1.68-31.31-4.24-45.628-5.32-14.317-1.079-32.039.562-33.295-.847-1.19-1.334 13.046-34.736 19.568-51.908 8.397-22.109 14.172-36.35 21.583-56.378l6.718-18.152c7.842-.33 15.353-.044 22.092.6-.006.79-3.517 18.256-7.722 36.078-4.205 17.822-8.187 33.033-8.187 34.404 0 1.372.875 1.663 3.244 2.132 2.369.47 14.896 2.498 27.003 4.787 12.107 2.289 34.199 7.926 49.464 12.528 15.266 4.601 37.028 11.685 47.898 15.928 10.87 4.243 30.58 13.25 44.451 20.292 13.87 7.043 34.725 19.092 46.25 26.87 11.525 7.776 28.559 20.556 36.74 27.38 8.181 6.824 23.658 21.074 33.65 31.666 14.205 15.683 30.308 33.907 40.05 52.027.95 1.765-10.393-6.35-38.73-27.161zm81.384-.982c-9.408 7.162-39.567 30.184-38.571 28.297 15.192-28.78 31.46-42.85 34.549-46.26 6.556-7.233 6.928-9.06 14.56-16.517 7.633-7.456 18.993-18.42 25.71-23.903 6.715-5.482 21.768-16.377 32.615-23.655 10.848-7.277 27.748-17.367 37.558-22.608 9.809-5.24 27.605-13.848 38.62-18.664 11.014-4.816 31.231-12.282 45.484-16.869 14.252-4.587 33.895-10.35 44.95-13.083 11.054-2.733 26.348-6.491 35.1-7.979 8.752-1.488 16.996-2.422 17.485-2.911.489-.49-2.2-14.228-6.441-32.294-4.24-18.065-8.545-37.004-8.545-38.561 0-2.117 8.519-1.917 11.862-1.77l10.344.456 4.258 11.841c2.186 6.08 8.114 21.166 13.29 34.326 5.177 13.16 14.168 35.805 19.34 50.725l10.84 27.86-18.332 1.643c-9.077.813-28.462 2.903-42.607 4.536-14.144 1.634-38.086 5.102-53.76 8.264-15.674 3.162-38.154 8.574-50.789 12.21-12.635 3.637-34.676 11.478-49.072 16.867-14.397 5.39-36.967 14.87-49.6 20.88-12.634 6.012-31.856 16.072-42.994 22.913-11.139 6.84-27.315 17.756-35.854 24.256zm33.67-111.894c-6.629.698-14.542.163-20.914-1.604-5.548-1.538-12.64-4.838-15.761-6.452-3.12-1.614-9.156-5.62-12.995-9.458-3.838-3.838-12.825-15.738-14.688-21.96l-2.452-8.187-.644-182.47c-.623-176.535-1.934-177.209 4.275-194.832 1.864-5.29 7.396-12.363 11.995-17.28 4.81-5.142 12.878-11.01 18.618-13.489 6.987-3.018 14.605-5.098 23.986-5.212 8.283-.102 18.345 2.002 24.463 4.113 5.443 1.878 13.089 6.062 17.872 10.271 5.435 4.785 12.017 12.612 15.912 20.626 3.427 7.05 4.33 13.149 5.416 13.922 1.087.774 5.374 1.496 8.23 1.512 2.856.015 10.48 1.705 16.202 3.846 5.722 2.14 14.677 7.354 19.485 11.585 5.397 4.751 11.867 12.771 15.752 20.663 5.736 11.651 6.393 16.492 6.408 32.681l-2.239 16.033 11.996 4.708c11.487 4.507 22.807 16.25 29.247 27.406 8.465 16.594 12.543 39.6-1.67 63.098-2.857 4.723-4.217 8.357-6.887 10.793-2.66 2.427 2.459 5.281 6.309 12.786 6.63 12.923 8.67 15.531 8.67 33.01 0 17.004-2.288 20.438-8.1 32.243-3.6 7.314-10.07 14.92-14.076 18.221-3.86 3.182-9.703 7.179-13.018 8.752-5.34 2.534-7.01 3.356-6.412 12.362.366 5.513-2.756 14.385-4.54 19.631-2.23 6.56-6.675 13.805-14.113 21.25-8.932 8.942-13.476 11.337-24.194 14.647-7.137 2.204-16.486 3.9-19.332 3.9-4.232 0-5.528 2.072-11.699 11.615-4.15 6.418-11.152 14.274-15.89 17.688-4.737 3.414-11.645 7.364-15.875 9.006-7.248 2.815-12.85 3.57-19.338 4.576z"/><path fill="#763a93" d="M454.117 676.8c-26.167-9.583-28.832-10.42-55.16-19.573-15.707-5.557-39.824-11.068-62.074-15.462-24.36-4.81-78.64-9.927-94.902-11.043-14.643-1.004-62.158-.628-78.43.194-17.13.865-52.58 6.105-53.114 5.537-2.032-2.157 18.025-47.294 19.719-47.913 2.457-.898 35.583-2.048 92.113 3.122 37.271 3.408 103.768 20.247 116.508 24.602 10.954 3.745 51.77 18.608 64.622 23.987 12.889 5.393 44.425 22.176 56.134 29.163 8.613 5.139 36.081 20.357 34.258 21.915-.813.695-39.674-14.53-39.674-14.53zm71.099 14.501c-1.86-.547 24.54-16.322 35.332-22.705 10.79-6.383 30.539-17.767 43.698-24 13.16-6.232 31.55-14.207 41.58-17.825 16.985-6.126 51.178-17.084 65.957-20.66 15.597-3.775 73.636-13.854 93.429-15.347 27.439-2.069 82.21-4.804 84.061-2.475 1.962 2.465 23.617 48.543 20.45 48.536-1.942-.004-81.398-5.68-90.938-5.87-9.692-.195-67.447 1.465-71.641 1.977-8.558 1.045-48.564 5.776-61.424 8.33-10.396 2.063-38.89 8.207-52.06 11.816-13.168 3.61-37.9 11.72-54.025 17.666-12.515 4.615-52.583 21.098-54.419 20.557z"/><path fill="#491c5c" d="M331.784 918.649c-3.159-.763-8.157-2.833-10.413-4.045-2.255-1.212-6.515-4.696-9.234-7.928-2.72-3.232-6.182-10.526-7.787-15.932-1.606-5.405-3.033-14.163-3.033-19.044 0-4.882 1.29-14.018 2.867-19.328 1.577-5.31 5.271-11.96 7.56-14.868 2.288-2.91 7.749-7.72 12.043-9.67 4.294-1.95 11.055-2.958 14.145-2.98 3.089-.024 10.693 1.206 14.996 3.29 4.304 2.083 8.64 7.073 10.52 10.253 1.879 3.181 2.71 5.328 3.704 5.328 1.034 0 .513-8.98.591-22.55l.152-26.343 8.41-.21c3.355-.084 14.87.197 12.911.246 0 0 1.348 2.774.477 60.447l.304 62.042-10.558-.228h-10.405l.151-7.681-.076-7.188-6.192 7.516c-3.545 4.302-10.656 7.518-14.607 8.864-3.553 1.21-11.03 1.328-16.527.01zm16.554-18.507c3.9-.511 8.547-2.39 11.838-5.682 3.439-3.439 5.509-7.867 6.504-13.025.886-4.598 1.219-11.869.599-15.554-.62-3.684-1.673-8.788-3.13-11.665-1.456-2.877-4.908-5.817-7.996-7.414-3.089-1.597-7.816-2.79-10.553-2.79-2.736 0-6.819.624-9.907 2.22-3.089 1.598-6.62 5.098-8.127 8.012-1.507 2.914-2.555 7.981-3.258 11.725-.702 3.744-.836 10.392.306 14.633 1.143 4.241 4.03 9.745 6.277 12.602 2.247 2.858 5.336 4.756 7.56 5.703 2.223.948 6.255 1.712 9.887 1.235zm295.456 18.68c-3.685.47-11.683.153-16.33-.703-4.648-.856-11.885-4.153-15.796-6.741-4.163-2.755-8.869-8.415-11.354-13.549-2.334-4.822-5.234-13.82-5.794-19.998-.56-6.177.25-17.082 1.52-22.377 1.398-5.829 5.176-12.864 9.224-17.593 5.06-5.91 10.341-8.793 18.401-11.136 7.328-2.13 14.162-2.468 20.895-1.584 5.383.707 13.698 3.606 17.92 6.07 4.242 2.477 10.279 8.578 12.647 12.792 2.357 4.194 4.275 10.25 4.425 11.679.294 2.81-1.817 2.765-10.907 2.896-8.09.117-12.489-.12-12.489-2.222 0-1.505-2.346-5.498-5.585-8.223-4.015-3.378-7.69-4.576-12.518-4.576-3.896 0-9.231 1.344-11.577 2.987s-4.945 5.097-6.518 8.14c-1.618 3.128-3.392 10.284-3.392 16.868 0 6.403 2.363 14.268 3.86 17.849 1.512 3.62 4.915 7.69 8.138 9.357 3.19 1.65 7.474 1.936 10.543 1.936 3.069 0 8.33-1.366 11.041-3.499 2.712-2.133 6.557-9.138 7.192-11.224.525-1.722 1.176-1.387 11.059-1.387 7.526 0 10.466-.53 9.252 3.447-.511 1.674-2.9 9.037-5.518 13.502-3.212 5.482-7.562 9.736-13.072 12.305-4.49 2.093-11.582 4.516-15.267 4.985zm341.306.686c-5.171.447-12.822-.39-15.98-1.21-3.158-.82-7.972-2.531-10.604-3.895-2.632-1.364-7.174-4.71-10.094-7.433-2.92-2.724-7.036-9.463-8.59-14.698-1.555-5.234-2.75-14.1-2.75-19.052 0-4.951 1.18-13.364 2.902-18.695 1.721-5.33 5.889-12.903 9.168-16.271 3.279-3.368 8.597-7.575 12.282-9.162 3.684-1.587 13.082-3.506 19.399-3.52 7.896-.02 14.636 1.357 19.9 4.073 4.211 2.173 9.44 5.701 11.155 7.655 1.716 1.955 4.989 7.252 6.81 10.844 1.822 3.592 3.92 11.864 4.477 18.01l.786 12.465-34.249.227c-28.19.188-30.605-.877-30.605 1.643 0 1.613-.027 5.395 1.425 8.87 1.451 3.474 5.317 8.108 8.218 10.39 3.072 2.417 6.943 3.011 10.75 3.011 3.594 0 8.545-.02 11.465-1.53s8.021-7.055 9.39-8.703c1.635-1.97 4.698-1.707 10.837-1.707 5.135 0 10.702-.405 10.702.492s-2.09 7.67-4.461 11.247c-2.37 3.578-9.02 9.15-13.848 11.548-4.828 2.398-13.313 4.954-18.485 5.4zm-3.7-55.562c18.6 0 20.23 1.218 20.23-1.327 0-1.649-.285-4.651-1.47-6.95-1.184-2.3-3.374-6.107-5.517-8.46-2.142-2.352-6.709-3.197-10.055-3.824-3.613-.678-8.657-.503-12.752 1.208-4.73 1.977-6.943 4.67-9.695 10.066-2.208 4.327-3.348 8.395-2.72 9.412.629 1.016 9.935-.125 21.98-.125zm-970.184 53.58-11.255-.039.434-58.366.094-60.303 12.67-.189 12.897.076 4.095 9.107c2.243 4.989 8.805 19.304 14.562 32.464s12.126 28.563 14.201 34.09c2.075 5.527 3.683 10.087 4.5 10.087.819 0 5.538-12.832 12.203-28.887 6.665-16.055 15.108-35.435 18.577-43.068l5.975-14.405 25.97.487s0 .694-.149 7.026c-.081 3.47 1.33 29.625 1.382 58.84l-.512 53.117-10.492.078-10.682.078-.242-41.095c-.146-24.634.064-42.22.064-42.22-.235.934-3.2 6.258-6.693 14.417-3.494 8.159-11.68 26.742-17.726 41.48-10.797 26.314-7.386 26.855-17.792 27.178-9.511.296-6.683-.552-16.716-24.884-5.644-13.686-14.002-33.104-17.97-42.316-3.968-9.211-6.135-15.99-7.135-15.99-1.111 0-.723 16.12-.316 41.885l.211 41.505zm165.832-.028c-1.478.138-6.627.272-11.843.219l-9.146-.156-.803-44.938.038-44.79 10.247-.208c5.376-.11 10.086-.27 10.398.256.312.526.09 21.643.247 44.978.158 23.334 1.696 44.285.862 44.639zm34.95-.014-9.8-.11-.806-46.745v-44.68l11.382-.107h9.772l-.168 8.615c-.082 4.23-.257 7.391.067 7.391.323 0 1.858-3.577 5.036-7.198 3.18-3.62 9.096-7.676 12.86-8.918 3.854-1.272 10.572-1.747 15.38-1.088 4.696.643 12.864 3.725 16.051 5.995 3.188 2.27 7.26 8.65 8.72 12.144 1.93 4.62 2.708 15.61 2.708 40.709l.212 34.033H272.18l-11.341-.107.111-31.743-.693-31.69-4.244-6.012c-2.932-4.154-7.292-4.563-13.14-4.563-5.625 0-9.104 1.081-12.077 3.851-2.369 2.207-4.794 5.925-5.782 8.524-.988 2.6-.258 17.793-1.153 33.51l.322 28.086zm218.857-.2s-6.466.392-12.522.16l-11.89-.053 21.782-59.044 21.627-59.55h25.613l18.426 49.667c9.59 25.848 20.187 51.317 21.92 57.022l4.903 12.003h-24.528l-5.27-15.434-4.733-12.858-22.855-.16h-23.23l-4.628 13.72c-2.555 7.575-4.138 13.761-4.615 14.527zm32.77-45.602c8.986.055 17.233.177 15.5-.142 0 0-3.3-11.905-7.938-25.372-4.638-13.468-7.581-24.602-8.413-24.951-.525-.22-3.857 11.24-8.69 25.405l-8.44 24.742c9.902.552 8.064.258 17.981.318zm82.117 45.296-11.209.126-.108-44.813.836-46.552 10.785.076 10.634.075-.495 9.805c.099 7.14-.595 7.221 1.406 3.926 1.254-2.065 3.824-6.536 6.638-9.472 3.96-4.131 9.552-6.524 15.577-6.097l7.5.532-.076 10.68c-.084 11.897 1.938 9.755-4.872 9.358-2.971-.436-10.347-.14-14.256 1.494-4.962 2.073-7.65 4.994-9.607 9.676-2.005 4.8-1.468 14.116-1.25 33.204l.323 28.07zm161.214.598-10.371.096-.59-60.87.13-62.01 10.482-.228 11.393.152-.152 24.99c-.08 13.16-.34 22.446.218 22.446.559 0 1.845-4.428 5.067-8.098 3.565-4.06 9.523-6.95 14.215-8.213 5.625-1.515 12.54-1.056 19.187.54 5.27 1.264 11.604 5.206 14.433 8.172 2.69 2.82 4.841 7.66 5.961 10.623 1.155 3.056 2.25 21.553 2.25 40.48v31.762l-11.395.107H756.39l.107-28.773c.076-20.482.481-30.34-1.447-34.954-1.49-3.567-4.448-7.036-6.574-8.173-2.125-1.138-5.94-1.765-9.22-1.765-3.28 0-8.08 1.024-11.038 2.553-2.958 1.53-6.647 5.675-7.92 8.748-1.39 3.356-2.584 22.77-1.979 33.46.605 10.69-.263 28.952-.263 28.952zm176.72.164c-12.706.47-11.38.611-14.009-4.888-1.106-2.895-7.025-21.521-13.809-40.998-6.783-19.476-13.857-40.087-14.867-42.456-1.775-4.163.067-3.717 10.139-3.609l9.989.108 10.204 29.95c4.845 15.53 9.675 31.519 11.062 35.73 1.683 5.11 1.518 6.648 2.305 4.732.648-1.58 5.332-17.673 11.091-35.52l10.986-34.043 10.35-.091 11.422.177-2.834 10.1c-1.466 5.223-8.99 25.952-16.675 45.508l-12.284 34.817zM166.284 814.013c-2.598.134-3.874-.105-6.252-1.06-2.377-.956-5.122-3.513-6.316-6.133-1.748-3.836-1.322-8.251 1.245-12.169 2.167-3.307 6.851-5.395 10.524-5.395 2.97 0 7.358 2.486 9.1 4.411 1.743 1.925 3.017 6.474 3.017 9.226 0 3.002-1.572 6.917-4.124 8.704-2.34 1.639-3.228 2.212-7.194 2.416zm340.2-81.004c-7.37 0-14.7-1.444-18.652-2.376-3.952-.931-11.812-3.95-17.335-6.71-5.523-2.758-15.6-7.131-19.135-12.223-7.145-10.29-8.82-6.539-34.983-14.34-14.547-4.339-36.027-8.61-46.844-10.808-10.817-2.198-30.806-5.67-44.55-7.718-13.745-2.047-38.706-4.302-56.782-5.535-18.713-1.277-46.977-1.524-65.067-.857-17.475.644-40.205 1.98-50.25 3.1-10.044 1.12-27.51 3.396-38.944 5.32-11.434 1.924-21.286 4.602-22.425 2.918-.898-1.33 4.885-23.99 7.05-25.923 1.744-1.558 18.913-3.116 32.58-5.077 20.465-2.937 36.062-5.265 88.868-5.177 49.058.082 68.666 2.59 87.3 5.082 13.395 1.79 36.865 5.112 51.368 7.775 14.503 2.662 43.811 9.324 64.867 14.675 35.568 9.038 37.247 7.629 43.363 13.88 3.62 3.701 11.908 11.443 17.236 13.924 7.06 3.287 13.744 4.516 22.905 4.53 6.915.01 16.818-.372 22.399-2.029 5.58-1.657 11.514-4.38 13.84-6.706 2.326-2.327 9.116-10.395 10.102-12.159 1.106-1.975 9.308-3.079 23.444-7.186 12.616-3.665 30.824-7.782 42.167-10.461 11.344-2.68 32.128-7.42 47.63-10.01 15.503-2.59 38.09-5.834 49.144-7.207 12.873-1.6 42.655-3.87 81.888-3.827 47.424.052 66.977 1.891 85.502 4.466 13.16 1.83 32.932 4.22 35.83 5.848 2.515 1.412 8.936 23.771 7.526 26.166-.77 1.308-12.561-1.556-27.3-4.024-14.74-2.468-44.282-5.794-65.257-6.998-28.458-1.633-47.12-1.318-74.17.295-19.938 1.188-46.275 3.122-58.529 4.69-12.253 1.567-31.969 4.383-43.55 6.518-11.58 2.135-37.092 7.93-54.463 12.222-29.31 7.241-29.881 4.787-35.162 13.18-3.1 4.929-12.75 10.979-18.06 13.626-5.308 2.647-14.671 5.912-19.364 6.993-4.693 1.082-12.122 2.143-18.82 2.143zm-67.527-177.583c-7.067-.07-16.982-2.004-21.379-3.379-4.396-1.374-11.333-4.364-15.022-6.645-3.69-2.28-9.132-8.332-12.358-12.005-3.225-3.674-7.336-9.555-9.397-13.595-3.416-6.697-2.937-8.708-11.962-8.218-9.769.53-16.276-2.564-21.797-4.63-5.522-2.066-13.596-7.337-17.943-11.058-4.548-3.893-11.126-11.594-14.478-18.433-3.475-7.092-5.77-17.05-6.484-23.905-1.187-11.385-.852-10.568-10.523-16.26-5.365-3.16-13.508-10.087-17.307-15.134-3.8-5.047-8.56-14.273-10.317-19.846-1.757-5.574-3.41-15.946-3.41-22.394 0-7.115 1.751-15.828 4.122-22.164 2.148-5.743 5.168-12.479 7.585-14.825l4-5.35-6.906-11.99c-6.558-11.384-9.005-15.864-9.676-30.41-.624-13.527 1.04-18.154 4.583-27.553 2.802-7.433 7.647-15.036 13.418-20.807 5.174-5.174 13.21-11.162 19.626-13.822 10.188-4.223 12.352-3.405 10.623-6.66-1.61-3.03-2.958-12.43-2.836-19.83.171-10.302 2.566-16.609 6.499-24.922 3.097-6.547 8.63-14.652 14.4-19.839 5.262-4.731 14.751-10.978 20.53-13.14 5.78-2.163 14.839-4.008 18.927-4.008 6.843 0 6.169 1.101 7.363-4.627.713-3.421 3.22-10.653 5.661-14.864 2.443-4.211 7.59-10.54 11.624-14.436 4.035-3.896 12.705-9.305 17.97-11.649 7.26-3.233 14.178-5.107 25.794-5.142 11.909-.036 18.29 1.24 26.052 4.676 5.6 2.479 14.124 8.741 18.838 13.781 4.984 5.329 9.644 13.996 11.667 19.647 4.27 11.929 5.54 26.94 3.129 196.711l-.516 176.94-5.374 17.233c-1.92 6.154-10.614 15.487-14.335 18.556-3.72 3.069-11.533 7.5-17.1 9.583-6.613 2.477-14.895 4.497-23.291 4.413zM824.314 917.26c1.05-1.05-6.628.272-11.843.219l-9.146-.155-.804-44.939.038-44.79 10.248-.208c5.376-.109 10.085-.27 10.397.256.313.526.09 21.643.248 44.978.157 23.335.221 45.28.862 44.64zm-10.765-103.485c-2.597.134-3.874-.105-6.251-1.06-2.378-.955-5.123-3.513-6.316-6.132-1.748-3.837-1.323-8.252 1.244-12.17 2.167-3.307 6.852-5.395 10.524-5.395 2.971 0 7.359 2.486 9.101 4.412 1.742 1.925 3.016 6.473 3.016 9.226 0 3.002-1.572 6.916-4.124 8.703-2.34 1.64-3.228 2.212-7.194 2.416z"/></svg>