<?xml version="1.0" encoding="UTF-8" standalone="no"?>
<svg
   width="1024"
   height="1024"
   version="1.1"
   id="svg3"
   sodipodi:docname="mindarchive.svg"
   inkscape:version="1.4.2 (f4327f4, 2025-05-13)"
   xmlns:inkscape="http://www.inkscape.org/namespaces/inkscape"
   xmlns:sodipodi="http://sodipodi.sourceforge.net/DTD/sodipodi-0.dtd"
   xmlns="http://www.w3.org/2000/svg"
   xmlns:svg="http://www.w3.org/2000/svg">
  <defs
     id="defs3" />
  <sodipodi:namedview
     id="namedview3"
     pagecolor="#505050"
     bordercolor="#eeeeee"
     borderopacity="1"
     inkscape:showpageshadow="0"
     inkscape:pageopacity="0"
     inkscape:pagecheckerboard="0"
     inkscape:deskcolor="#505050"
     inkscape:zoom="0.78808594"
     inkscape:cx="511.36555"
     inkscape:cy="512"
     inkscape:window-width="1920"
     inkscape:window-height="1009"
     inkscape:window-x="-8"
     inkscape:window-y="-8"
     inkscape:window-maximized="1"
     inkscape:current-layer="svg3" />
  <g
     id="g3"
     transform="matrix(1.2259026,0,0,1.2259026,-112.01331,-5.9821592)">
    <path
       fill="#aa70c2"
       d="m 468.777,668.103 c -8.938,-6.811 -23.838,-17.48 -32.926,-23.154 -9.089,-5.672 -28.59,-16.131 -42.408,-23.056 -13.818,-6.924 -33.97,-15.7 -44.227,-19.78 -10.256,-4.079 -29.692,-10.703 -44.491,-15.463 -14.8,-4.759 -38.614,-11.266 -53.293,-14.46 -14.679,-3.195 -36.358,-7.334 -47.804,-9.013 -11.446,-1.68 -31.31,-4.24 -45.628,-5.32 -14.317,-1.079 -32.039,0.562 -33.295,-0.847 -1.19,-1.334 13.046,-34.736 19.568,-51.908 8.397,-22.109 14.172,-36.35 21.583,-56.378 l 6.718,-18.152 c 7.842,-0.33 15.353,-0.044 22.092,0.6 -0.006,0.79 -3.517,18.256 -7.722,36.078 -4.205,17.822 -8.187,33.033 -8.187,34.404 0,1.372 0.875,1.663 3.244,2.132 2.369,0.47 14.896,2.498 27.003,4.787 12.107,2.289 34.199,7.926 49.464,12.528 15.266,4.601 37.028,11.685 47.898,15.928 10.87,4.243 30.58,13.25 44.451,20.292 13.87,7.043 34.725,19.092 46.25,26.87 11.525,7.776 28.559,20.556 36.74,27.38 8.181,6.824 23.658,21.074 33.65,31.666 14.205,15.683 30.308,33.907 40.05,52.027 0.95,1.765 -10.393,-6.35 -38.73,-27.161 z m 81.384,-0.982 c -9.408,7.162 -39.567,30.184 -38.571,28.297 15.192,-28.78 31.46,-42.85 34.549,-46.26 6.556,-7.233 6.928,-9.06 14.56,-16.517 7.633,-7.456 18.993,-18.42 25.71,-23.903 6.715,-5.482 21.768,-16.377 32.615,-23.655 10.848,-7.277 27.748,-17.367 37.558,-22.608 9.809,-5.24 27.605,-13.848 38.62,-18.664 11.014,-4.816 31.231,-12.282 45.484,-16.869 14.252,-4.587 33.895,-10.35 44.95,-13.083 11.054,-2.733 26.348,-6.491 35.1,-7.979 8.752,-1.488 16.996,-2.422 17.485,-2.911 0.489,-0.49 -2.2,-14.228 -6.441,-32.294 -4.24,-18.065 -8.545,-37.004 -8.545,-38.561 0,-2.117 8.519,-1.917 11.862,-1.77 l 10.344,0.456 4.258,11.841 c 2.186,6.08 8.114,21.166 13.29,34.326 5.177,13.16 14.168,35.805 19.34,50.725 l 10.84,27.86 -18.332,1.643 c -9.077,0.813 -28.462,2.903 -42.607,4.536 -14.144,1.634 -38.086,5.102 -53.76,8.264 -15.674,3.162 -38.154,8.574 -50.789,12.21 -12.635,3.637 -34.676,11.478 -49.072,16.867 -14.397,5.39 -36.967,14.87 -49.6,20.88 -12.634,6.012 -31.856,16.072 -42.994,22.913 -11.139,6.84 -27.315,17.756 -35.854,24.256 z m 33.67,-111.894 c -6.629,0.698 -14.542,0.163 -20.914,-1.604 -5.548,-1.538 -12.64,-4.838 -15.761,-6.452 -3.12,-1.614 -9.156,-5.62 -12.995,-9.458 -3.838,-3.838 -12.825,-15.738 -14.688,-21.96 l -2.452,-8.187 -0.644,-182.47 c -0.623,-176.535 -1.934,-177.209 4.275,-194.832 1.864,-5.29 7.396,-12.363 11.995,-17.28 4.81,-5.142 12.878,-11.01 18.618,-13.489 6.987,-3.018 14.605,-5.098 23.986,-5.212 8.283,-0.102 18.345,2.002 24.463,4.113 5.443,1.878 13.089,6.062 17.872,10.271 5.435,4.785 12.017,12.612 15.912,20.626 3.427,7.05 4.33,13.149 5.416,13.922 1.087,0.774 5.374,1.496 8.23,1.512 2.856,0.015 10.48,1.705 16.202,3.846 5.722,2.14 14.677,7.354 19.485,11.585 5.397,4.751 11.867,12.771 15.752,20.663 5.736,11.651 6.393,16.492 6.408,32.681 l -2.239,16.033 11.996,4.708 c 11.487,4.507 22.807,16.25 29.247,27.406 8.465,16.594 12.543,39.6 -1.67,63.098 -2.857,4.723 -4.217,8.357 -6.887,10.793 -2.66,2.427 2.459,5.281 6.309,12.786 6.63,12.923 8.67,15.531 8.67,33.01 0,17.004 -2.288,20.438 -8.1,32.243 -3.6,7.314 -10.07,14.92 -14.076,18.221 -3.86,3.182 -9.703,7.179 -13.018,8.752 -5.34,2.534 -7.01,3.356 -6.412,12.362 0.366,5.513 -2.756,14.385 -4.54,19.631 -2.23,6.56 -6.675,13.805 -14.113,21.25 -8.932,8.942 -13.476,11.337 -24.194,14.647 -7.137,2.204 -16.486,3.9 -19.332,3.9 -4.232,0 -5.528,2.072 -11.699,11.615 -4.15,6.418 -11.152,14.274 -15.89,17.688 -4.737,3.414 -11.645,7.364 -15.875,9.006 -7.248,2.815 -12.85,3.57 -19.338,4.576 z"
       id="path1" />
    <path
       fill="#763a93"
       d="m 454.117,676.8 c -26.167,-9.583 -28.832,-10.42 -55.16,-19.573 -15.707,-5.557 -39.824,-11.068 -62.074,-15.462 -24.36,-4.81 -78.64,-9.927 -94.902,-11.043 -14.643,-1.004 -62.158,-0.628 -78.43,0.194 -17.13,0.865 -52.58,6.105 -53.114,5.537 -2.032,-2.157 18.025,-47.294 19.719,-47.913 2.457,-0.898 35.583,-2.048 92.113,3.122 37.271,3.408 103.768,20.247 116.508,24.602 10.954,3.745 51.77,18.608 64.622,23.987 12.889,5.393 44.425,22.176 56.134,29.163 8.613,5.139 36.081,20.357 34.258,21.915 -0.813,0.695 -39.674,-14.53 -39.674,-14.53 z m 71.099,14.501 c -1.86,-0.547 24.54,-16.322 35.332,-22.705 10.79,-6.383 30.539,-17.767 43.698,-24 13.16,-6.232 31.55,-14.207 41.58,-17.825 16.985,-6.126 51.178,-17.084 65.957,-20.66 15.597,-3.775 73.636,-13.854 93.429,-15.347 27.439,-2.069 82.21,-4.804 84.061,-2.475 1.962,2.465 23.617,48.543 20.45,48.536 -1.942,-0.004 -81.398,-5.68 -90.938,-5.87 -9.692,-0.195 -67.447,1.465 -71.641,1.977 -8.558,1.045 -48.564,5.776 -61.424,8.33 -10.396,2.063 -38.89,8.207 -52.06,11.816 -13.168,3.61 -37.9,11.72 -54.025,17.666 -12.515,4.615 -52.583,21.098 -54.419,20.557 z"
       id="path2" />
    <path
       fill="#491c5c"
       d="m 506.484,733.009 c -7.37,0 -14.7,-1.444 -18.652,-2.376 -3.952,-0.931 -11.812,-3.95 -17.335,-6.71 -5.523,-2.758 -15.6,-7.131 -19.135,-12.223 -7.145,-10.29 -8.82,-6.539 -34.983,-14.34 -14.547,-4.339 -36.027,-8.61 -46.844,-10.808 -10.817,-2.198 -30.806,-5.67 -44.55,-7.718 -13.745,-2.047 -38.706,-4.302 -56.782,-5.535 -18.713,-1.277 -46.977,-1.524 -65.067,-0.857 -17.475,0.644 -40.205,1.98 -50.25,3.1 -10.044,1.12 -27.51,3.396 -38.944,5.32 -11.434,1.924 -21.286,4.602 -22.425,2.918 -0.898,-1.33 4.885,-23.99 7.05,-25.923 1.744,-1.558 18.913,-3.116 32.58,-5.077 20.465,-2.937 36.062,-5.265 88.868,-5.177 49.058,0.082 68.666,2.59 87.3,5.082 13.395,1.79 36.865,5.112 51.368,7.775 14.503,2.662 43.811,9.324 64.867,14.675 35.568,9.038 37.247,7.629 43.363,13.88 3.62,3.701 11.908,11.443 17.236,13.924 7.06,3.287 13.744,4.516 22.905,4.53 6.915,0.01 16.818,-0.372 22.399,-2.029 5.58,-1.657 11.514,-4.38 13.84,-6.706 2.326,-2.327 9.116,-10.395 10.102,-12.159 1.106,-1.975 9.308,-3.079 23.444,-7.186 12.616,-3.665 30.824,-7.782 42.167,-10.461 11.344,-2.68 32.128,-7.42 47.63,-10.01 15.503,-2.59 38.09,-5.834 49.144,-7.207 12.873,-1.6 42.655,-3.87 81.888,-3.827 47.424,0.052 66.977,1.891 85.502,4.466 13.16,1.83 32.932,4.22 35.83,5.848 2.515,1.412 8.936,23.771 7.526,26.166 -0.77,1.308 -12.561,-1.556 -27.3,-4.024 -14.74,-2.468 -44.282,-5.794 -65.257,-6.998 -28.458,-1.633 -47.12,-1.318 -74.17,0.295 -19.938,1.188 -46.275,3.122 -58.529,4.69 -12.253,1.567 -31.969,4.383 -43.55,6.518 -11.58,2.135 -37.092,7.93 -54.463,12.222 -29.31,7.241 -29.881,4.787 -35.162,13.18 -3.1,4.929 -12.75,10.979 -18.06,13.626 -5.308,2.647 -14.671,5.912 -19.364,6.993 -4.693,1.082 -12.122,2.143 -18.82,2.143 z M 438.957,555.426 c -7.067,-0.07 -16.982,-2.004 -21.379,-3.379 -4.396,-1.374 -11.333,-4.364 -15.022,-6.645 -3.69,-2.28 -9.132,-8.332 -12.358,-12.005 -3.225,-3.674 -7.336,-9.555 -9.397,-13.595 -3.416,-6.697 -2.937,-8.708 -11.962,-8.218 -9.769,0.53 -16.276,-2.564 -21.797,-4.63 -5.522,-2.066 -13.596,-7.337 -17.943,-11.058 -4.548,-3.893 -11.126,-11.594 -14.478,-18.433 -3.475,-7.092 -5.77,-17.05 -6.484,-23.905 -1.187,-11.385 -0.852,-10.568 -10.523,-16.26 -5.365,-3.16 -13.508,-10.087 -17.307,-15.134 -3.8,-5.047 -8.56,-14.273 -10.317,-19.846 -1.757,-5.574 -3.41,-15.946 -3.41,-22.394 0,-7.115 1.751,-15.828 4.122,-22.164 2.148,-5.743 5.168,-12.479 7.585,-14.825 l 4,-5.35 -6.906,-11.99 c -6.558,-11.384 -9.005,-15.864 -9.676,-30.41 -0.624,-13.527 1.04,-18.154 4.583,-27.553 2.802,-7.433 7.647,-15.036 13.418,-20.807 5.174,-5.174 13.21,-11.162 19.626,-13.822 10.188,-4.223 12.352,-3.405 10.623,-6.66 -1.61,-3.03 -2.958,-12.43 -2.836,-19.83 0.171,-10.302 2.566,-16.609 6.499,-24.922 3.097,-6.547 8.63,-14.652 14.4,-19.839 5.262,-4.731 14.751,-10.978 20.53,-13.14 5.78,-2.163 14.839,-4.008 18.927,-4.008 6.843,0 6.169,1.101 7.363,-4.627 0.713,-3.421 3.22,-10.653 5.661,-14.864 2.443,-4.211 7.59,-10.54 11.624,-14.436 4.035,-3.896 12.705,-9.305 17.97,-11.649 7.26,-3.233 14.178,-5.107 25.794,-5.142 11.909,-0.036 18.29,1.24 26.052,4.676 5.6,2.479 14.124,8.741 18.838,13.781 4.984,5.329 9.644,13.996 11.667,19.647 4.27,11.929 5.54,26.94 3.129,196.711 l -0.516,176.94 -5.374,17.233 c -1.92,6.154 -10.614,15.487 -14.335,18.556 -3.72,3.069 -11.533,7.5 -17.1,9.583 -6.613,2.477 -14.895,4.497 -23.291,4.413 z"
       id="path3"
       sodipodi:nodetypes="sccccscccsscccccccccccccccscsccsscccsccccsscccccccscccccsccccscsccccccscccccscccccccc" />
  </g>
</svg>
